<?xml version="1.0" encoding="UTF-8" standalone="no"?>
<!DOCTYPE svg PUBLIC "-//W3C//DTD SVG 1.1//EN"
 "http://www.w3.org/Graphics/SVG/1.1/DTD/svg11.dtd">
<!-- Generated by graphviz version 2.43.0 (0)
 -->
<!-- Title: ps_algorithms::validate_allocate Pages: 1 -->
<svg width="480pt" height="123pt"
 viewBox="0.00 0.00 480.00 122.84" xmlns="http://www.w3.org/2000/svg" xmlns:xlink="http://www.w3.org/1999/xlink">

<svg id="main" version="1.1" xmlns="http://www.w3.org/2000/svg" xmlns:xlink="http://www.w3.org/1999/xlink" xml:space="preserve" onload="init(evt)">
<style type="text/css"><![CDATA[
.node, .edge {opacity: 0.7;}
.node.selected, .edge.selected {opacity: 1;}
.edge:hover path { stroke: red; }
.edge:hover polygon { stroke: red; fill: red; }
]]></style>
<script type="application/ecmascript" xlink:href="svg.min.js"/>
<svg id="graph" class="graph">
<g id="graph0" class="graph" transform="scale(1 1) rotate(0) translate(4 118.84)">
<title>ps_algorithms::validate_allocate</title>
<!-- Node1 -->
<g id="Node000001" class="node">
<title>Node1</title>
<g id="a_Node000001"><a xlink:title="validate n &gt; 0. Upper limit is platform dependent">
<polygon fill="#999999" stroke="#666666" points="472,-79.5 341,-79.5 341,-49.5 472,-49.5 472,-79.5"/>
<text text-anchor="start" x="349" y="-67.5" font-family="Helvetica,sans-Serif" font-size="10.00">ps_algorithms::validate</text>
<text text-anchor="middle" x="406.5" y="-56.5" font-family="Helvetica,sans-Serif" font-size="10.00">_allocate</text>
</a>
</g>
</g>
<!-- Node2 -->
<g id="Node000002" class="node">
<title>Node2</title>
<g id="a_Node000002"><a xlink:href="ps__benchmark_8f90.html#a7af3b9aa88cfac5bf2186ab5f973fedf" target="_top" xlink:title="powers of the &quot;Golden&#45;Mean&quot;">
<polygon fill="white" stroke="#666666" points="88,-74 0,-74 0,-55 88,-55 88,-74"/>
<text text-anchor="middle" x="44" y="-62" font-family="Helvetica,sans-Serif" font-size="10.00">ps_benchmark</text>
</a>
</g>
</g>
<!-- Node1&#45;&gt;Node2 -->
<g id="edge1_Node000001_Node000002" class="edge">
<title>Node1&#45;&gt;Node2</title>
<g id="a_edge1_Node000001_Node000002"><a xlink:title=" ">
<path fill="none" stroke="#63b8ff" d="M364.67,-83.78C346.79,-91.2 325.28,-98.79 305,-102.5 225.87,-116.96 202.43,-120.38 124,-102.5 100.11,-97.05 75.02,-83.43 59.69,-74.06"/>
<polygon fill="#63b8ff" stroke="#63b8ff" points="366.4,-86.85 374.21,-79.69 363.64,-80.41 366.4,-86.85"/>
</a>
</g>
</g>
<!-- Node3 -->
<g id="Node000003" class="node">
<title>Node3</title>
<g id="a_Node000003"><a xlink:href="namespaceps__algorithms.html#a1ea4296bcc2abea6a81cafdf3a645cd3" target="_top" xlink:title="powers via explicit multiplications">
<polygon fill="white" stroke="#666666" points="305,-93 124,-93 124,-74 305,-74 305,-93"/>
<text text-anchor="middle" x="214.5" y="-81" font-family="Helvetica,sans-Serif" font-size="10.00">ps_algorithms::ps_multiplications</text>
</a>
</g>
</g>
<!-- Node1&#45;&gt;Node3 -->
<g id="edge2_Node000001_Node000003" class="edge">
<title>Node1&#45;&gt;Node3</title>
<g id="a_edge2_Node000001_Node000003"><a xlink:title=" ">
<path fill="none" stroke="#63b8ff" d="M330.78,-71.97C322.37,-72.81 313.73,-73.68 305.16,-74.53"/>
<polygon fill="#63b8ff" stroke="#63b8ff" points="331.31,-75.44 340.91,-70.96 330.61,-68.47 331.31,-75.44"/>
</a>
</g>
</g>
<!-- Node4 -->
<g id="Node000004" class="node">
<title>Node4</title>
<g id="a_Node000004"><a xlink:href="namespaceps__algorithms.html#ac395a61f2466439bdbbc81b97b1df726" target="_top" xlink:title="powers, direct method">
<polygon fill="white" stroke="#666666" points="286,-56 143,-56 143,-37 286,-37 286,-56"/>
<text text-anchor="middle" x="214.5" y="-44" font-family="Helvetica,sans-Serif" font-size="10.00">ps_algorithms::ps_powers</text>
</a>
</g>
</g>
<!-- Node1&#45;&gt;Node4 -->
<g id="edge4_Node000001_Node000004" class="edge">
<title>Node1&#45;&gt;Node4</title>
<g id="a_edge4_Node000001_Node000004"><a xlink:title=" ">
<path fill="none" stroke="#63b8ff" d="M330.84,-57.43C316.11,-56.03 300.69,-54.57 286.1,-53.19"/>
<polygon fill="#63b8ff" stroke="#63b8ff" points="330.62,-60.92 340.91,-58.38 331.28,-53.95 330.62,-60.92"/>
</a>
</g>
</g>
<!-- Node5 -->
<g id="Node000005" class="node">
<title>Node5</title>
<g id="a_Node000005"><a xlink:href="namespaceps__algorithms.html#ad83ad18df4437ef3d833420b24b16c1a" target="_top" xlink:title="using recursion">
<polygon fill="white" stroke="#666666" points="291,-19 138,-19 138,0 291,0 291,-19"/>
<text text-anchor="middle" x="214.5" y="-7" font-family="Helvetica,sans-Serif" font-size="10.00">ps_algorithms::ps_recursion</text>
</a>
</g>
</g>
<!-- Node1&#45;&gt;Node5 -->
<g id="edge6_Node000001_Node000005" class="edge">
<title>Node1&#45;&gt;Node5</title>
<g id="a_edge6_Node000001_Node000005"><a xlink:title=" ">
<path fill="none" stroke="#63b8ff" d="M357.78,-45.92C341.22,-39.87 322.44,-33.45 305,-28.5 292.62,-24.99 279.12,-21.79 266.44,-19.07"/>
<polygon fill="#63b8ff" stroke="#63b8ff" points="356.64,-49.23 367.24,-49.42 359.08,-42.67 356.64,-49.23"/>
</a>
</g>
</g>
<!-- Node3&#45;&gt;Node2 -->
<g id="edge3_Node000003_Node000002" class="edge">
<title>Node3&#45;&gt;Node2</title>
<g id="a_edge3_Node000003_Node000002"><a xlink:title=" ">
<path fill="none" stroke="#63b8ff" d="M118.54,-72.79C107.94,-71.6 97.56,-70.43 88.1,-69.36"/>
<polygon fill="#63b8ff" stroke="#63b8ff" points="118.43,-76.3 128.76,-73.94 119.21,-69.35 118.43,-76.3"/>
</a>
</g>
</g>
<!-- Node4&#45;&gt;Node2 -->
<g id="edge5_Node000004_Node000002" class="edge">
<title>Node4&#45;&gt;Node2</title>
<g id="a_edge5_Node000004_Node000002"><a xlink:title=" ">
<path fill="none" stroke="#63b8ff" d="M132.48,-55.16C117.12,-56.8 101.62,-58.45 88.02,-59.9"/>
<polygon fill="#63b8ff" stroke="#63b8ff" points="132.96,-58.62 142.53,-54.08 132.21,-51.66 132.96,-58.62"/>
</a>
</g>
</g>
<!-- Node5&#45;&gt;Node2 -->
<g id="edge7_Node000005_Node000002" class="edge">
<title>Node5&#45;&gt;Node2</title>
<g id="a_edge7_Node000005_Node000002"><a xlink:title=" ">
<path fill="none" stroke="#63b8ff" d="M149.09,-21.4C140.58,-23.49 132.02,-25.86 124,-28.5 102.38,-35.62 78.78,-46.87 63.06,-54.89"/>
<polygon fill="#63b8ff" stroke="#63b8ff" points="150.1,-24.76 159.04,-19.08 148.51,-17.94 150.1,-24.76"/>
</a>
</g>
</g>
</g>
</svg>
</svg>

<style type='text/css'>
<![CDATA[
[data-mouse-over-selected='false'] { opacity: 0.7; }
[data-mouse-over-selected='true']  { opacity: 1.0; }
]]>
</style>
<script type="application/ecmascript"><![CDATA[
document.addEventListener('DOMContentLoaded', (event) => {
  highlightEdges();
  highlightAdjacentNodes();
});
]]></script>
</svg>
