<?xml version="1.0" encoding="UTF-8" standalone="no"?>
<!DOCTYPE svg PUBLIC "-//W3C//DTD SVG 1.1//EN"
 "http://www.w3.org/Graphics/SVG/1.1/DTD/svg11.dtd">
<!-- Generated by graphviz version 2.43.0 (0)
 -->
<!-- Title: ch1::badluck Pages: 1 -->
<svg width="320pt" height="76pt"
 viewBox="0.00 0.00 320.00 75.50" xmlns="http://www.w3.org/2000/svg" xmlns:xlink="http://www.w3.org/1999/xlink">
<g id="graph0" class="graph" transform="scale(1 1) rotate(0) translate(4 71.5)">
<title>ch1::badluck</title>
<!-- Node1 -->
<g id="Node000001" class="node">
<title>Node1</title>
<g id="a_Node000001"><a xlink:title="bootstrap function from the original program to make it testable">
<polygon fill="#999999" stroke="#666666" points="312,-45.5 234,-45.5 234,-26.5 312,-26.5 312,-45.5"/>
<text text-anchor="middle" x="273" y="-33.5" font-family="Helvetica,sans-Serif" font-size="10.00">ch1::badluck</text>
</a>
</g>
</g>
<!-- Node2 -->
<g id="Node000002" class="node">
<title>Node2</title>
<g id="a_Node000002"><a xlink:href="badluk_8f90.html#a7c327c146682aff913576359ffd45e72" target="_top" xlink:title="a funny program that computes all the occurences of friday 13th that coincide with full moon">
<polygon fill="white" stroke="#666666" points="164.5,-67.5 114.5,-67.5 114.5,-48.5 164.5,-48.5 164.5,-67.5"/>
<text text-anchor="middle" x="139.5" y="-55.5" font-family="Helvetica,sans-Serif" font-size="10.00">badluk</text>
</a>
</g>
</g>
<!-- Node1&#45;&gt;Node2 -->
<g id="edge1_Node000001_Node000002" class="edge">
<title>Node1&#45;&gt;Node2</title>
<g id="a_edge1_Node000001_Node000002"><a xlink:title=" ">
<path fill="none" stroke="#63b8ff" d="M224.01,-44.03C203.88,-47.4 181.36,-51.16 164.77,-53.94"/>
<polygon fill="#63b8ff" stroke="#63b8ff" points="224.68,-47.47 233.96,-42.36 223.52,-40.56 224.68,-47.47"/>
</a>
</g>
</g>
<!-- Node3 -->
<g id="Node000003" class="node">
<title>Node3</title>
<g id="a_Node000003"><a xlink:href="namespacetest__badluck.html#afad1c5c83dfce886e0848712be768b1e" target="_top" xlink:title="collect tests into testsuite">
<polygon fill="white" stroke="#666666" points="198,-30 81,-30 81,0 198,0 198,-30"/>
<text text-anchor="start" x="89" y="-18" font-family="Helvetica,sans-Serif" font-size="10.00">test_badluck::collect</text>
<text text-anchor="middle" x="139.5" y="-7" font-family="Helvetica,sans-Serif" font-size="10.00">_badluck</text>
</a>
</g>
</g>
<!-- Node1&#45;&gt;Node3 -->
<g id="edge2_Node000001_Node000003" class="edge">
<title>Node1&#45;&gt;Node3</title>
<g id="a_edge2_Node000001_Node000003"><a xlink:title=" ">
<path fill="none" stroke="#63b8ff" d="M223.94,-28.32C215.52,-26.98 206.68,-25.57 198.03,-24.19"/>
<polygon fill="#63b8ff" stroke="#63b8ff" points="223.54,-31.81 233.96,-29.93 224.64,-24.89 223.54,-31.81"/>
</a>
</g>
</g>
<!-- Node4 -->
<g id="Node000004" class="node">
<title>Node4</title>
<g id="a_Node000004"><a xlink:href="tester_8f90.html#abb1af5b22eb90cec23fca42accb63245" target="_top" xlink:title="Adapted from test driver suggested by test&#45;drive getting started documentatation.">
<polygon fill="white" stroke="#666666" points="45,-24.5 0,-24.5 0,-5.5 45,-5.5 45,-24.5"/>
<text text-anchor="middle" x="22.5" y="-12.5" font-family="Helvetica,sans-Serif" font-size="10.00">tester</text>
</a>
</g>
</g>
<!-- Node3&#45;&gt;Node4 -->
<g id="edge3_Node000003_Node000004" class="edge">
<title>Node3&#45;&gt;Node4</title>
<g id="a_edge3_Node000003_Node000004"><a xlink:title=" ">
<path fill="none" stroke="#63b8ff" d="M70.64,-15C61.49,-15 52.71,-15 45.25,-15"/>
<polygon fill="#63b8ff" stroke="#63b8ff" points="70.66,-18.5 80.66,-15 70.66,-11.5 70.66,-18.5"/>
</a>
</g>
</g>
</g>
</svg>
