<?xml version="1.0" encoding="UTF-8" standalone="no"?>
<!DOCTYPE svg PUBLIC "-//W3C//DTD SVG 1.1//EN"
 "http://www.w3.org/Graphics/SVG/1.1/DTD/svg11.dtd">
<!-- Generated by graphviz version 2.43.0 (0)
 -->
<!-- Title: ps_benchmark Pages: 1 -->
<svg width="480pt" height="140pt"
 viewBox="0.00 0.00 480.00 140.00" xmlns="http://www.w3.org/2000/svg" xmlns:xlink="http://www.w3.org/1999/xlink">
<g id="graph0" class="graph" transform="scale(1 1) rotate(0) translate(4 136)">
<title>ps_benchmark</title>
<!-- Node1 -->
<g id="Node000001" class="node">
<title>Node1</title>
<g id="a_Node000001"><a xlink:title="powers of the &quot;Golden&#45;Mean&quot;">
<polygon fill="#999999" stroke="#666666" points="88,-75 0,-75 0,-56 88,-56 88,-75"/>
<text text-anchor="middle" x="44" y="-63" font-family="Helvetica,sans-Serif" font-size="10.00">ps_benchmark</text>
</a>
</g>
</g>
<!-- Node2 -->
<g id="Node000002" class="node">
<title>Node2</title>
<g id="a_Node000002"><a xlink:href="namespaceps__algorithms.html#a1ea4296bcc2abea6a81cafdf3a645cd3" target="_top" xlink:title="powers via explicit multiplications">
<polygon fill="white" stroke="#666666" points="305,-132 124,-132 124,-113 305,-113 305,-132"/>
<text text-anchor="middle" x="214.5" y="-120" font-family="Helvetica,sans-Serif" font-size="10.00">ps_algorithms::ps_multiplications</text>
</a>
</g>
</g>
<!-- Node1&#45;&gt;Node2 -->
<g id="edge1_Node000001_Node000002" class="edge">
<title>Node1&#45;&gt;Node2</title>
<g id="a_edge1_Node000001_Node000002"><a xlink:title=" ">
<path fill="none" stroke="#63b8ff" d="M65.83,-75.1C81.59,-82.14 103.88,-91.64 124,-98.5 136.74,-102.85 150.71,-106.92 163.75,-110.42"/>
<polygon fill="#63b8ff" stroke="#63b8ff" points="162.94,-113.83 173.5,-112.99 164.73,-107.06 162.94,-113.83"/>
</a>
</g>
</g>
<!-- Node3 -->
<g id="Node000003" class="node">
<title>Node3</title>
<g id="a_Node000003"><a xlink:href="namespaceps__algorithms.html#adc43d1fdf2f99d3a41297aaf38fe7ba5" target="_top" xlink:title="validate n &gt; 0. Upper limit is platform dependent">
<polygon fill="white" stroke="#666666" points="472,-80.5 341,-80.5 341,-50.5 472,-50.5 472,-80.5"/>
<text text-anchor="start" x="349" y="-68.5" font-family="Helvetica,sans-Serif" font-size="10.00">ps_algorithms::validate</text>
<text text-anchor="middle" x="406.5" y="-57.5" font-family="Helvetica,sans-Serif" font-size="10.00">_allocate</text>
</a>
</g>
</g>
<!-- Node1&#45;&gt;Node3 -->
<g id="edge7_Node000001_Node000003" class="edge">
<title>Node1&#45;&gt;Node3</title>
<g id="a_edge7_Node000001_Node000003"><a xlink:title=" ">
<path fill="none" stroke="#63b8ff" d="M88.13,-65.5C148.01,-65.5 257.25,-65.5 330.61,-65.5"/>
<polygon fill="#63b8ff" stroke="#63b8ff" points="330.71,-69 340.71,-65.5 330.71,-62 330.71,-69"/>
</a>
</g>
</g>
<!-- Node4 -->
<g id="Node000004" class="node">
<title>Node4</title>
<g id="a_Node000004"><a xlink:href="namespaceps__algorithms.html#ac395a61f2466439bdbbc81b97b1df726" target="_top" xlink:title="powers, direct method">
<polygon fill="white" stroke="#666666" points="286,-56 143,-56 143,-37 286,-37 286,-56"/>
<text text-anchor="middle" x="214.5" y="-44" font-family="Helvetica,sans-Serif" font-size="10.00">ps_algorithms::ps_powers</text>
</a>
</g>
</g>
<!-- Node1&#45;&gt;Node4 -->
<g id="edge3_Node000001_Node000004" class="edge">
<title>Node1&#45;&gt;Node4</title>
<g id="a_edge3_Node000001_Node000004"><a xlink:title=" ">
<path fill="none" stroke="#63b8ff" d="M88.39,-60.61C101.99,-59.07 117.46,-57.33 132.78,-55.6"/>
<polygon fill="#63b8ff" stroke="#63b8ff" points="133.26,-59.07 142.8,-54.47 132.47,-52.11 133.26,-59.07"/>
</a>
</g>
</g>
<!-- Node5 -->
<g id="Node000005" class="node">
<title>Node5</title>
<g id="a_Node000005"><a xlink:href="namespaceps__algorithms.html#ad83ad18df4437ef3d833420b24b16c1a" target="_top" xlink:title="using recursion">
<polygon fill="white" stroke="#666666" points="291,-19 138,-19 138,0 291,0 291,-19"/>
<text text-anchor="middle" x="214.5" y="-7" font-family="Helvetica,sans-Serif" font-size="10.00">ps_algorithms::ps_recursion</text>
</a>
</g>
</g>
<!-- Node1&#45;&gt;Node5 -->
<g id="edge5_Node000001_Node000005" class="edge">
<title>Node1&#45;&gt;Node5</title>
<g id="a_edge5_Node000001_Node000005"><a xlink:title=" ">
<path fill="none" stroke="#63b8ff" d="M62.41,-55.93C78.1,-47.65 102.03,-35.87 124,-28.5 131.9,-25.85 140.32,-23.49 148.72,-21.41"/>
<polygon fill="#63b8ff" stroke="#63b8ff" points="149.61,-24.79 158.54,-19.09 148,-17.98 149.61,-24.79"/>
</a>
</g>
</g>
<!-- Node2&#45;&gt;Node3 -->
<g id="edge2_Node000002_Node000003" class="edge">
<title>Node2&#45;&gt;Node3</title>
<g id="a_edge2_Node000002_Node000003"><a xlink:title=" ">
<path fill="none" stroke="#63b8ff" d="M253.08,-112.92C269.13,-108.7 288.04,-103.55 305,-98.5 320.16,-93.98 336.49,-88.77 351.5,-83.84"/>
<polygon fill="#63b8ff" stroke="#63b8ff" points="352.74,-87.11 361.14,-80.65 350.55,-80.47 352.74,-87.11"/>
</a>
</g>
</g>
<!-- Node4&#45;&gt;Node3 -->
<g id="edge4_Node000004_Node000003" class="edge">
<title>Node4&#45;&gt;Node3</title>
<g id="a_edge4_Node000004_Node000003"><a xlink:title=" ">
<path fill="none" stroke="#63b8ff" d="M286.25,-53.57C300.82,-55.03 316.21,-56.57 330.92,-58.04"/>
<polygon fill="#63b8ff" stroke="#63b8ff" points="330.67,-61.53 340.97,-59.05 331.37,-54.57 330.67,-61.53"/>
</a>
</g>
</g>
<!-- Node5&#45;&gt;Node3 -->
<g id="edge6_Node000005_Node000003" class="edge">
<title>Node5&#45;&gt;Node3</title>
<g id="a_edge6_Node000005_Node000003"><a xlink:title=" ">
<path fill="none" stroke="#63b8ff" d="M266.93,-19.1C279.47,-21.8 292.79,-24.98 305,-28.5 322.77,-33.63 341.91,-40.36 358.66,-46.67"/>
<polygon fill="#63b8ff" stroke="#63b8ff" points="357.63,-50.02 368.22,-50.32 360.13,-43.49 357.63,-50.02"/>
</a>
</g>
</g>
</g>
</svg>
