<?xml version="1.0" encoding="UTF-8" standalone="no"?>
<!DOCTYPE svg PUBLIC "-//W3C//DTD SVG 1.1//EN"
 "http://www.w3.org/Graphics/SVG/1.1/DTD/svg11.dtd">
<!-- Generated by graphviz version 2.43.0 (0)
 -->
<!-- Title: tester Pages: 1 -->
<svg width="374pt" height="182pt"
 viewBox="0.00 0.00 374.00 182.00" xmlns="http://www.w3.org/2000/svg" xmlns:xlink="http://www.w3.org/1999/xlink">

<svg id="main" version="1.1" xmlns="http://www.w3.org/2000/svg" xmlns:xlink="http://www.w3.org/1999/xlink" xml:space="preserve" onload="init(evt)">
<style type="text/css"><![CDATA[
.node, .edge {opacity: 0.7;}
.node.selected, .edge.selected {opacity: 1;}
.edge:hover path { stroke: red; }
.edge:hover polygon { stroke: red; fill: red; }
]]></style>
<script type="application/ecmascript" xlink:href="svg.min.js"/>
<svg id="graph" class="graph">
<g id="graph0" class="graph" transform="scale(1 1) rotate(0) translate(4 178)">
<title>tester</title>
<!-- Node1 -->
<g id="Node000001" class="node">
<title>Node1</title>
<g id="a_Node000001"><a xlink:title="Adapted from test driver suggested by test&#45;drive getting started documentatation.">
<polygon fill="#999999" stroke="#666666" points="45,-96.5 0,-96.5 0,-77.5 45,-77.5 45,-96.5"/>
<text text-anchor="middle" x="22.5" y="-84.5" font-family="Helvetica,sans-Serif" font-size="10.00">tester</text>
</a>
</g>
</g>
<!-- Node2 -->
<g id="Node000002" class="node">
<title>Node2</title>
<g id="a_Node000002"><a xlink:href="namespacetest__badluck.html#afad1c5c83dfce886e0848712be768b1e" target="_top" xlink:title="collect tests into testsuite">
<polygon fill="white" stroke="#666666" points="203,-174 86,-174 86,-144 203,-144 203,-174"/>
<text text-anchor="start" x="94" y="-162" font-family="Helvetica,sans-Serif" font-size="10.00">test_badluck::collect</text>
<text text-anchor="middle" x="144.5" y="-151" font-family="Helvetica,sans-Serif" font-size="10.00">_badluck</text>
</a>
</g>
</g>
<!-- Node1&#45;&gt;Node2 -->
<g id="edge1_Node000001_Node000002" class="edge">
<title>Node1&#45;&gt;Node2</title>
<g id="a_edge1_Node000001_Node000002"><a xlink:title=" ">
<path fill="none" stroke="#63b8ff" d="M32.92,-96.57C43.74,-107.13 62.39,-124.07 81,-135 83.81,-136.65 86.75,-138.22 89.76,-139.72"/>
<polygon fill="#63b8ff" stroke="#63b8ff" points="88.4,-142.95 98.94,-143.98 91.34,-136.6 88.4,-142.95"/>
</a>
</g>
</g>
<!-- Node4 -->
<g id="Node000004" class="node">
<title>Node4</title>
<g id="a_Node000004"><a xlink:href="namespacetest__caldat.html#a9d84cda8ece739225cd9a3e049eedad2" target="_top" xlink:title=" ">
<polygon fill="white" stroke="#666666" points="199,-126 90,-126 90,-96 199,-96 199,-126"/>
<text text-anchor="start" x="98" y="-114" font-family="Helvetica,sans-Serif" font-size="10.00">test_caldat::collect</text>
<text text-anchor="middle" x="144.5" y="-103" font-family="Helvetica,sans-Serif" font-size="10.00">_caldat</text>
</a>
</g>
</g>
<!-- Node1&#45;&gt;Node4 -->
<g id="edge3_Node000001_Node000004" class="edge">
<title>Node1&#45;&gt;Node4</title>
<g id="a_edge3_Node000001_Node000004"><a xlink:title=" ">
<path fill="none" stroke="#63b8ff" d="M45.23,-91.35C55.14,-93.33 67.45,-95.79 79.96,-98.29"/>
<polygon fill="#63b8ff" stroke="#63b8ff" points="79.5,-101.77 89.99,-100.3 80.87,-94.91 79.5,-101.77"/>
</a>
</g>
</g>
<!-- Node5 -->
<g id="Node000005" class="node">
<title>Node5</title>
<g id="a_Node000005"><a xlink:href="namespacetest__date__utils.html#a8a202e3ac649d9e0286f65d47fd24b76" target="_top" xlink:title="collect all exported unitests">
<polygon fill="white" stroke="#666666" points="208,-78 81,-78 81,-48 208,-48 208,-78"/>
<text text-anchor="start" x="89" y="-66" font-family="Helvetica,sans-Serif" font-size="10.00">test_date_utils::collect</text>
<text text-anchor="middle" x="144.5" y="-55" font-family="Helvetica,sans-Serif" font-size="10.00">_date_utils</text>
</a>
</g>
</g>
<!-- Node1&#45;&gt;Node5 -->
<g id="edge4_Node000001_Node000005" class="edge">
<title>Node1&#45;&gt;Node5</title>
<g id="a_edge4_Node000001_Node000005"><a xlink:title=" ">
<path fill="none" stroke="#63b8ff" d="M45.23,-82.65C52.75,-81.15 61.65,-79.37 70.96,-77.51"/>
<polygon fill="#63b8ff" stroke="#63b8ff" points="71.67,-80.94 80.79,-75.54 70.29,-74.07 71.67,-80.94"/>
</a>
</g>
</g>
<!-- Node7 -->
<g id="Node000007" class="node">
<title>Node7</title>
<g id="a_Node000007"><a xlink:href="namespacetest__julday.html#aab8840faf76d61c344f37d94f31fc1ef" target="_top" xlink:title="collect all exported unittests">
<polygon fill="white" stroke="#666666" points="198.5,-30 90.5,-30 90.5,0 198.5,0 198.5,-30"/>
<text text-anchor="start" x="98.5" y="-18" font-family="Helvetica,sans-Serif" font-size="10.00">test_julday::collect</text>
<text text-anchor="middle" x="144.5" y="-7" font-family="Helvetica,sans-Serif" font-size="10.00">_julday</text>
</a>
</g>
</g>
<!-- Node1&#45;&gt;Node7 -->
<g id="edge6_Node000001_Node000007" class="edge">
<title>Node1&#45;&gt;Node7</title>
<g id="a_edge6_Node000001_Node000007"><a xlink:title=" ">
<path fill="none" stroke="#63b8ff" d="M32.92,-77.43C43.74,-66.87 62.39,-49.93 81,-39 83.81,-37.35 86.75,-35.78 89.76,-34.28"/>
<polygon fill="#63b8ff" stroke="#63b8ff" points="91.34,-37.4 98.94,-30.02 88.4,-31.05 91.34,-37.4"/>
</a>
</g>
</g>
<!-- Node3 -->
<g id="Node000003" class="node">
<title>Node3</title>
<g id="a_Node000003"><a xlink:href="namespacech1.html#ae6bebfd6f1caa859e131b56646dc08f3" target="_top" xlink:title="bootstrap function from the original program to make it testable">
<polygon fill="white" stroke="#666666" points="344,-168.5 266,-168.5 266,-149.5 344,-149.5 344,-168.5"/>
<text text-anchor="middle" x="305" y="-156.5" font-family="Helvetica,sans-Serif" font-size="10.00">ch1::badluck</text>
</a>
</g>
</g>
<!-- Node2&#45;&gt;Node3 -->
<g id="edge2_Node000002_Node000003" class="edge">
<title>Node2&#45;&gt;Node3</title>
<g id="a_edge2_Node000002_Node000003"><a xlink:title=" ">
<path fill="none" stroke="#63b8ff" d="M203.17,-159C220.47,-159 239.25,-159 255.87,-159"/>
<polygon fill="#63b8ff" stroke="#63b8ff" points="255.9,-162.5 265.9,-159 255.9,-155.5 255.9,-162.5"/>
</a>
</g>
</g>
<!-- Node6 -->
<g id="Node000006" class="node">
<title>Node6</title>
<g id="a_Node000006"><a xlink:href="namespacedate__utils.html#a175f2c9754248987340049e4558bb798" target="_top" xlink:title="adds node to the tail of the list">
<polygon fill="white" stroke="#666666" points="366,-72.5 244,-72.5 244,-53.5 366,-53.5 366,-72.5"/>
<text text-anchor="middle" x="305" y="-60.5" font-family="Helvetica,sans-Serif" font-size="10.00">date_utils::push_back</text>
</a>
</g>
</g>
<!-- Node5&#45;&gt;Node6 -->
<g id="edge5_Node000005_Node000006" class="edge">
<title>Node5&#45;&gt;Node6</title>
<g id="a_edge5_Node000005_Node000006"><a xlink:title=" ">
<path fill="none" stroke="#63b8ff" d="M208.14,-63C216.51,-63 225.13,-63 233.62,-63"/>
<polygon fill="#63b8ff" stroke="#63b8ff" points="233.88,-66.5 243.88,-63 233.88,-59.5 233.88,-66.5"/>
</a>
</g>
</g>
</g>
</svg>
</svg>

<style type='text/css'>
<![CDATA[
[data-mouse-over-selected='false'] { opacity: 0.7; }
[data-mouse-over-selected='true']  { opacity: 1.0; }
]]>
</style>
<script type="application/ecmascript"><![CDATA[
document.addEventListener('DOMContentLoaded', (event) => {
  highlightEdges();
  highlightAdjacentNodes();
});
]]></script>
</svg>
